<svg id="Group_23" data-name="Group 23" xmlns="http://www.w3.org/2000/svg" xmlns:xlink="http://www.w3.org/1999/xlink" width="110.197" height="110.197" viewBox="0 0 110.197 110.197">
  <defs>
    <clipPath id="clip-path">
      <rect id="Rectangle_33" data-name="Rectangle 33" width="110.197" height="110.197" transform="translate(0 0)" fill="none" stroke="#0f2849" stroke-width="1"/>
    </clipPath>
  </defs>
  <g id="Group_22" data-name="Group 22" clip-path="url(#clip-path)">
    <path id="Path_32" data-name="Path 32" d="M107.939,55.1c0,2.654-6.153,4.795-6.552,7.336-.41,2.609,4.777,6.539,3.979,9-.812,2.5-7.325,2.632-8.5,4.943-1.192,2.335,2.52,7.683.989,9.787s-7.772.228-9.617,2.072.043,8.078-2.071,9.617-7.452-2.18-9.787-.988c-2.31,1.179-2.441,7.692-4.942,8.5-2.458.8-6.388-4.389-9-3.979-2.541.4-4.682,6.552-7.336,6.552s-4.795-6.153-7.336-6.552c-2.609-.41-6.539,4.777-9,3.979-2.5-.813-2.632-7.326-4.943-8.5-2.335-1.192-7.683,2.519-9.787.988s-.228-7.772-2.072-9.617-8.078.042-9.617-2.072,2.181-7.452.989-9.787c-1.18-2.31-7.693-2.441-8.505-4.943-.8-2.458,4.389-6.388,3.979-9-.4-2.541-6.552-4.682-6.552-7.336S8.412,50.3,8.811,47.761c.41-2.609-4.777-6.538-3.979-9,.812-2.5,7.326-2.633,8.505-4.943,1.192-2.335-2.519-7.683-.988-9.787s7.772-.227,9.617-2.071-.042-8.079,2.072-9.617,7.452,2.181,9.787.99c2.31-1.18,2.441-7.693,4.942-8.505,2.458-.8,6.388,4.389,9,3.979,2.542-.4,4.682-6.552,7.336-6.552s4.794,6.153,7.336,6.552c2.609.41,6.538-4.777,9-3.979,2.5.812,2.633,7.325,4.943,8.505,2.335,1.192,7.683-2.52,9.787-.989s.227,7.772,2.071,9.617,8.078-.043,9.617,2.071-2.181,7.452-.989,9.786c1.18,2.311,7.693,2.442,8.5,4.943.8,2.458-4.389,6.387-3.979,9C101.786,50.3,107.939,52.443,107.939,55.1Z" fill="none" stroke="#0f2849" stroke-linecap="round" stroke-linejoin="round" stroke-width="4.517"/>
    <path id="Path_33" data-name="Path 33" d="M107.939,55.1c0,2.654-6.153,4.795-6.552,7.336-.41,2.609,4.777,6.539,3.979,9-.812,2.5-7.325,2.632-8.5,4.943-1.192,2.335,2.52,7.683.989,9.787s-7.772.228-9.617,2.072.043,8.078-2.071,9.617-7.452-2.18-9.787-.988c-2.31,1.179-2.441,7.692-4.942,8.5-2.458.8-6.388-4.389-9-3.979-2.541.4-4.682,6.552-7.336,6.552s-4.795-6.153-7.336-6.552c-2.609-.41-6.539,4.777-9,3.979-2.5-.813-2.632-7.326-4.943-8.5-2.335-1.192-7.683,2.519-9.787.988s-.228-7.772-2.072-9.617-8.078.042-9.617-2.072,2.181-7.452.989-9.787c-1.18-2.31-7.693-2.441-8.505-4.943-.8-2.458,4.389-6.388,3.979-9-.4-2.541-6.552-4.682-6.552-7.336S8.412,50.3,8.811,47.761c.41-2.609-4.777-6.538-3.979-9,.812-2.5,7.326-2.633,8.505-4.943,1.192-2.335-2.519-7.683-.988-9.787s7.772-.227,9.617-2.071-.042-8.079,2.072-9.617,7.452,2.181,9.787.99c2.31-1.18,2.441-7.693,4.942-8.505,2.458-.8,6.388,4.389,9,3.979,2.542-.4,4.682-6.552,7.336-6.552s4.794,6.153,7.336,6.552c2.609.41,6.538-4.777,9-3.979,2.5.812,2.633,7.325,4.943,8.505,2.335,1.192,7.683-2.52,9.787-.989s.227,7.772,2.071,9.617,8.078-.043,9.617,2.071-2.181,7.452-.989,9.786c1.18,2.311,7.693,2.442,8.5,4.943.8,2.458-4.389,6.387-3.979,9C101.786,50.3,107.939,52.443,107.939,55.1Z" fill="none" stroke="#0f2849" stroke-linecap="round" stroke-linejoin="round" stroke-width="4.517"/>
    <path id="Path_34" data-name="Path 34" d="M92.726,55.1A37.627,37.627,0,1,1,55.1,17.471,37.627,37.627,0,0,1,92.726,55.1Z" fill="none" stroke="#0f2849" stroke-linecap="round" stroke-linejoin="round" stroke-width="4.517"/>
    <path id="Path_35" data-name="Path 35" d="M39.459,50.956,50.4,61.9,72.542,39.761l6.563,6.209-28.7,28.7L32.4,57.968Z" fill="none" stroke="#0f2849" stroke-linecap="round" stroke-linejoin="round" stroke-width="4.517"/>
  </g>
</svg>
