<svg xmlns="http://www.w3.org/2000/svg" xmlns:xlink="http://www.w3.org/1999/xlink" width="81.172" height="112.486" viewBox="0 0 81.172 112.486">
  <defs>
    <clipPath id="clip-path">
      <rect id="Rectangle_40" data-name="Rectangle 40" width="81.172" height="112.486" fill="#0f2849"/>
    </clipPath>
  </defs>
  <g id="Group_27" data-name="Group 27" clip-path="url(#clip-path)">
    <path id="Path_46" data-name="Path 46" d="M23.516,76.569V68.354H21.144v8.131a1.622,1.622,0,0,1-.306,1.137,1.155,1.155,0,0,1-.864.314,3.185,3.185,0,0,1-.886-.118,4.1,4.1,0,0,1-.928-.426l-.891,2.064a6.264,6.264,0,0,0,1.365.537,6.685,6.685,0,0,0,1.717.2,3.877,3.877,0,0,0,1.3-.209,2.5,2.5,0,0,0,1.006-.649,2.972,2.972,0,0,0,.635-1.129,5.36,5.36,0,0,0,.222-1.639" transform="translate(8.158 32.291)" fill="#0f2849"/>
    <path id="Path_47" data-name="Path 47" d="M30.786,79.644A5.971,5.971,0,0,0,32.9,78.5a5.212,5.212,0,0,0,1.387-1.861,6.068,6.068,0,0,0,.5-2.51,5.791,5.791,0,0,0-.517-2.512A5.063,5.063,0,0,0,32.844,69.8,6.177,6.177,0,0,0,30.7,68.716a9.453,9.453,0,0,0-2.671-.362H24.865V80.029h3.251a8.847,8.847,0,0,0,2.669-.384M27.237,77.8v-7.21h.823a7.023,7.023,0,0,1,1.751.2,3.6,3.6,0,0,1,1.331.627,2.893,2.893,0,0,1,.851,1.1,3.861,3.861,0,0,1,.306,1.618,4.34,4.34,0,0,1-.3,1.715,2.83,2.83,0,0,1-.851,1.129A3.485,3.485,0,0,1,29.8,77.6a7.606,7.606,0,0,1-1.807.2Z" transform="translate(11.746 32.291)" fill="#0f2849"/>
    <path id="Path_48" data-name="Path 48" d="M36.9,68.354H34.513V80.028H42.1V77.8H36.9Z" transform="translate(16.304 32.291)" fill="#0f2849"/>
    <path id="Path_49" data-name="Path 49" d="M51.1,15.961c-.748-1.615-1.614-3.494-2.376-5.159l5.256.437L51.519,6.786c-.191-.347-.393-.832-.589-1.3C50.289,3.95,49.489,2.036,47.5,1.522A61.134,61.134,0,0,0,36.663.016c-3.1-.224-5.47,1.947-5.847,5.4-.174,1.577-.449,3.8-.726,6.024-.2,1.583-.393,3.164-.552,4.517H0v5.411H81.172V15.961Zm-16.08,0c.144-1.193.308-2.512.473-3.847.28-2.25.56-4.5.735-6.1a2.275,2.275,0,0,1,.121-.561c1.439.106,2.862.218,4.263.375L41.83,8.749c.406.97,1.96,4.364,3.275,7.212ZM46.845,7.275c.106-.855.212-1.712.28-2.319a.883.883,0,0,1,.046-.213l.4.029A2,2,0,0,1,49.253,6c.153.37.9,2.03,1.4,3.113l-3.989-.371c.054-.454.116-.954.18-1.462" transform="translate(0 0)" fill="#0f2849"/>
    <rect id="Rectangle_37" data-name="Rectangle 37" width="5.418" height="41.107" transform="translate(37.876 26.886)" fill="#0f2849"/>
    <path id="Path_50" data-name="Path 50" d="M33.081,18.259l0,41.11h5.413v-35.7H60.132V18.259H33.081Z" transform="translate(15.625 8.626)" fill="#0f2849"/>
    <path id="Path_51" data-name="Path 51" d="M25.34,18.259H3.67v5.483H25.315V59.368h5.411l0-41.11Z" transform="translate(1.734 8.626)" fill="#0f2849"/>
    <path id="Path_52" data-name="Path 52" d="M40.427,33.983H51.246V31.138H43.272V28.58h7.975V25.736H40.427Z" transform="translate(19.098 12.158)" fill="#0f2849"/>
    <path id="Path_53" data-name="Path 53" d="M3.677,77.663H19.909V25.732H9.088v5.411H14.5v41.04H9.088V66.662H3.672v5.522h0Z" transform="translate(1.735 12.156)" fill="#0f2849"/>
    <rect id="Rectangle_38" data-name="Rectangle 38" width="5.411" height="41.117" transform="translate(59.526 48.701)" fill="#0f2849"/>
    <path id="Path_54" data-name="Path 54" d="M18.375,66.267H45.433V49.855H32.18v5.413h7.842v5.407L29.2,60.688v-5.42H23.786V60.68l-5.411-.007Z" transform="translate(8.68 23.552)" fill="#0f2849"/>
    <rect id="Rectangle_39" data-name="Rectangle 39" width="4.03" height="4.03" transform="translate(50.057 91.201)" fill="#0f2849"/>
  </g>
</svg>
