<svg xmlns="http://www.w3.org/2000/svg" xmlns:xlink="http://www.w3.org/1999/xlink" width="135.294" height="74.626" viewBox="0 0 135.294 74.626">
  <defs>
    <clipPath id="clip-path">
      <rect id="Rectangle_32" data-name="Rectangle 32" width="135.294" height="74.626" transform="translate(0 0)" fill="none" stroke="#0f2849" stroke-width="1"/>
    </clipPath>
  </defs>
  <g id="Group_20" data-name="Group 20" transform="translate(0 0)" clip-path="url(#clip-path)">
    <path id="Path_24" data-name="Path 24" d="M72.72,68.858c-3.951,6.28-14.459,1.062-14.459,1.062L23.2,46.207l-2.415,6.979L2.673,52.913,8.947,5.545,27.032,8.156,48.805,7.138" fill="none" stroke="#0f2849" stroke-linecap="round" stroke-linejoin="round" stroke-width="5.345"/>
    <path id="Path_25" data-name="Path 25" d="M72.72,68.858c-3.951,6.28-14.459,1.062-14.459,1.062L23.2,46.207l-2.415,6.979L2.673,52.913,8.947,5.545,27.032,8.156,48.805,7.138" fill="none" stroke="#0f2849" stroke-linecap="round" stroke-linejoin="round" stroke-width="5.345"/>
    <path id="Path_26" data-name="Path 26" d="M23.2,46.207s6.513-29.9,3.835-38.051" fill="none" stroke="#0f2849" stroke-linecap="round" stroke-linejoin="round" stroke-width="5.345"/>
    <path id="Path_27" data-name="Path 27" d="M59.83,58.076l8.014,6.379S79.1,73.673,84.9,65.723" fill="none" stroke="#0f2849" stroke-linecap="round" stroke-linejoin="round" stroke-width="5.345"/>
    <path id="Path_28" data-name="Path 28" d="M67.822,50.172l8.014,6.377s12.3,12.06,20.19,1.169" fill="none" stroke="#0f2849" stroke-linecap="round" stroke-linejoin="round" stroke-width="5.345"/>
    <path id="Path_29" data-name="Path 29" d="M77.493,42.7c5.122,5.375,12.463,10.853,19.74,12.58,3.631.866,7.066-2.9,6.122-6.381-1.038-3.833-4.624-6.739-7.676-8.9-8.7-6.152-30.219-19.6-30.219-19.6l-7.422,1.424C41.752,45.262,34.42,19.269,48.805,7.138s55.445,4.3,55.445,4.3" fill="none" stroke="#0f2849" stroke-linecap="round" stroke-linejoin="round" stroke-width="5.345"/>
    <path id="Path_30" data-name="Path 30" d="M109.622,44.011s-5.693,8.457-7.7,9.857" fill="none" stroke="#0f2849" stroke-linecap="round" stroke-linejoin="round" stroke-width="5.345"/>
    <path id="Path_31" data-name="Path 31" d="M112.1,48.387s-6.516-29.9-3.836-38.053l18.083-2.607,6.274,47.37-18.109.27Z" fill="none" stroke="#0f2849" stroke-linecap="round" stroke-linejoin="round" stroke-width="5.345"/>
  </g>
</svg>
