<svg id="Layer_1" data-name="Layer 1" xmlns="http://www.w3.org/2000/svg" viewBox="0 0 595.28 841.89"><defs><style>.cls-1{fill:#d9b574;}</style></defs><polygon class="cls-1" points="120.08 797.25 125.68 781.43 135.71 753.42 145.73 781.43 151.33 797.25 158.11 816.02 175.7 816.02 145.23 733.77 126.27 733.77 95.81 816.02 113.4 816.02 120.08 797.25"/><path class="cls-1" d="M234.86,791.65V733.77H218.15v57.29q0,5.81-2.16,8a8.16,8.16,0,0,1-6.09,2.21,22.68,22.68,0,0,1-6.24-.83,29.08,29.08,0,0,1-6.54-3L190.84,812a44.34,44.34,0,0,0,9.62,3.79,47.2,47.2,0,0,0,12.09,1.42,27.51,27.51,0,0,0,9.19-1.47,17.73,17.73,0,0,0,7.08-4.57,20.93,20.93,0,0,0,4.47-8A38,38,0,0,0,234.86,791.65Z"/><path class="cls-1" d="M311.35,813.32a42.19,42.19,0,0,0,14.9-8.06A36.84,36.84,0,0,0,336,792.14a42.8,42.8,0,0,0,3.48-17.69,40.85,40.85,0,0,0-3.63-17.68,35.72,35.72,0,0,0-10-12.78,43.3,43.3,0,0,0-15.08-7.66A66.27,66.27,0,0,0,292,733.77H269.64V816h22.9A62.45,62.45,0,0,0,311.35,813.32Zm-25-13V749.49h5.8a49.58,49.58,0,0,1,12.33,1.43,25.24,25.24,0,0,1,9.39,4.42,20.45,20.45,0,0,1,6,7.71,27.28,27.28,0,0,1,2.16,11.4,30.56,30.56,0,0,1-2.11,12.09,19.85,19.85,0,0,1-6,8,24.52,24.52,0,0,1-9.52,4.42,53.94,53.94,0,0,1-12.74,1.38Z"/><polygon class="cls-1" points="386.53 733.77 369.73 733.77 369.73 816.02 423.18 816.02 423.18 800.3 386.53 800.3 386.53 733.77"/><path class="cls-1" d="M371.73,137.14c-5.27-11.39-11.38-24.62-16.75-36.35l37,3.08L374.67,72.5c-1.35-2.45-2.77-5.86-4.15-9.15C366,52.52,360.37,39,346.35,35.41c-25.18-6.5-51.51-8.8-76.35-10.61-21.86-1.58-38.54,13.72-41.19,38.07-1.23,11.11-3.17,26.78-5.11,42.44-1.39,11.15-2.77,22.3-3.9,31.83H11.69v38.12H583.58V137.14Zm-113.29,0c1-8.41,2.16-17.7,3.32-27.11,2-15.85,3.94-31.72,5.18-43a16.29,16.29,0,0,1,.85-3.95c10.14.74,20.17,1.54,30,2.65l8.58,20.58c2.86,6.83,13.81,30.74,23.07,50.81Zm83.29-61.2c.76-6,1.5-12.06,2-16.34a6.42,6.42,0,0,1,.31-1.5l2.81.21a14.07,14.07,0,0,1,11.88,8.62c1.08,2.6,6.34,14.3,9.86,21.93l-28.1-2.61C340.85,83.05,341.29,79.52,341.73,75.94Z"/><polygon class="cls-1" points="316.7 214.11 278.54 214.1 278.54 503.72 316.73 503.73 316.7 214.11"/><polygon class="cls-1" points="354.85 214.1 354.82 503.73 392.95 503.73 392.95 252.25 545.43 252.25 545.43 214.1 392.76 214.1 354.85 214.1"/><polygon class="cls-1" points="202.44 214.1 49.77 214.1 49.77 252.73 202.26 252.73 202.26 503.73 240.39 503.73 240.36 214.1 202.44 214.1"/><polygon class="cls-1" points="431.07 349.77 507.3 349.77 507.3 329.73 451.12 329.73 451.12 311.71 507.3 311.71 507.3 291.66 431.07 291.66 431.07 349.77"/><polygon class="cls-1" points="49.82 657.5 87.95 657.5 125.82 657.5 129.18 657.5 164.18 657.5 164.18 618.9 164.18 330.23 164.18 291.63 125.82 291.63 87.95 291.63 87.95 329.75 126.05 329.75 126.05 618.9 87.95 618.9 87.95 580 49.79 580 49.79 618.9 49.82 618.9 49.82 657.5"/><rect class="cls-1" x="431.07" y="367.81" width="38.13" height="289.69"/><polygon class="cls-1" points="202.31 657.5 294.59 657.5 392.95 657.5 392.95 541.88 299.58 541.88 299.58 580 354.82 580 354.82 618.1 278.56 618.2 278.56 580 240.44 580 240.44 618.14 202.31 618.09 202.31 657.5"/><rect class="cls-1" x="364.37" y="667.24" width="28.4" height="28.4"/></svg>